<svg xmlns="http://www.w3.org/2000/svg" xmlns:xlink="http://www.w3.org/1999/xlink" width="50" zoomAndPan="magnify" viewBox="0 0 37.5 37.499999" height="50" preserveAspectRatio="xMidYMid meet" version="1.0"><defs><clipPath id="dbef815779"><path d="M 0 9.828125 L 37.007812 9.828125 L 37.007812 26.851562 L 0 26.851562 Z M 0 9.828125 " clip-rule="nonzero"/></clipPath><clipPath id="a5b85bc09b"><path d="M 31 10 L 37 10 L 37 17.851562 L 31 17.851562 Z M 31 10 " clip-rule="nonzero"/></clipPath><clipPath id="0ffe59426a"><path d="M 0 0.828125 L 32 0.828125 L 32 17.851562 L 0 17.851562 Z M 0 0.828125 " clip-rule="nonzero"/></clipPath><clipPath id="d823ec746b"><rect x="0" width="38" y="0" height="18"/></clipPath></defs><g clip-path="url(#dbef815779)"><g transform="matrix(1, 0, 0, 1, 0, 9)"><g clip-path="url(#d823ec746b)"><g clip-path="url(#a5b85bc09b)"><path fill="#000000" d="M 31.59375 14.707031 C 31.332031 14.253906 31.21875 13.800781 31.21875 13.320312 C 31.21875 11.734375 32.515625 10.460938 34.105469 10.460938 C 35.691406 10.460938 36.988281 11.734375 36.988281 13.320312 C 36.988281 13.773438 36.875 14.253906 36.613281 14.707031 C 36.613281 14.707031 36.613281 14.738281 36.585938 14.738281 L 34.824219 17.429688 C 34.679688 17.683594 34.390625 17.824219 34.105469 17.824219 C 33.816406 17.824219 33.527344 17.683594 33.382812 17.429688 L 31.621094 14.738281 C 31.59375 14.738281 31.59375 14.707031 31.59375 14.707031 Z M 32.601562 14.140625 L 34.105469 16.4375 L 35.605469 14.140625 C 35.75 13.859375 35.835938 13.605469 35.835938 13.320312 C 35.835938 12.359375 35.054688 11.59375 34.105469 11.59375 C 33.152344 11.59375 32.371094 12.359375 32.371094 13.320312 C 32.371094 13.605469 32.457031 13.859375 32.601562 14.140625 Z M 32.601562 14.140625 " fill-opacity="1" fill-rule="nonzero"/></g><path fill="#000000" d="M 33.527344 13.492188 C 33.527344 13.648438 33.582031 13.78125 33.695312 13.890625 C 33.808594 14.003906 33.945312 14.058594 34.105469 14.058594 C 34.261719 14.058594 34.398438 14.003906 34.511719 13.890625 C 34.625 13.78125 34.679688 13.648438 34.679688 13.492188 C 34.679688 13.335938 34.625 13.199219 34.511719 13.089844 C 34.398438 12.980469 34.261719 12.925781 34.105469 12.925781 C 33.945312 12.925781 33.808594 12.980469 33.695312 13.089844 C 33.582031 13.199219 33.527344 13.335938 33.527344 13.492188 Z M 33.527344 13.492188 " fill-opacity="1" fill-rule="nonzero"/><g clip-path="url(#0ffe59426a)"><path fill="#000000" d="M 0.246094 4.710938 C 1.199219 3.890625 2.179688 4.3125 2.875 4.625 C 3.59375 4.9375 3.914062 5.023438 4.289062 4.710938 C 4.460938 4.570312 4.691406 4.511719 4.894531 4.625 C 5.097656 4.710938 5.242188 4.910156 5.242188 5.136719 L 5.242188 11.28125 C 6.164062 11.621094 6.828125 12.5 6.828125 13.546875 L 6.828125 15.386719 C 6.828125 16.097656 7.40625 16.664062 8.15625 16.664062 C 8.878906 16.664062 9.484375 16.097656 9.484375 15.386719 L 9.484375 12.585938 C 8.878906 12.328125 8.445312 11.734375 8.445312 11.027344 C 8.445312 10.320312 8.878906 9.722656 9.484375 9.46875 L 9.484375 3.238281 C 9.484375 1.90625 10.582031 0.828125 11.964844 0.828125 L 12.167969 0.828125 C 13.523438 0.828125 14.648438 1.90625 14.648438 3.238281 L 14.648438 5.164062 C 15.371094 5.363281 15.890625 6.011719 15.890625 6.804688 C 15.890625 7.597656 15.371094 8.222656 14.648438 8.449219 L 14.648438 10.742188 C 14.648438 11.195312 15.023438 11.566406 15.488281 11.566406 L 17.621094 11.566406 C 18.171875 11.566406 18.660156 11.761719 19.039062 12.132812 C 19.414062 12.5 19.613281 12.980469 19.613281 13.519531 L 19.613281 14.90625 C 19.613281 15.246094 19.757812 15.585938 19.988281 15.8125 C 20.25 16.070312 20.566406 16.183594 20.914062 16.183594 L 21.144531 16.183594 C 21.867188 16.183594 22.472656 15.617188 22.472656 14.90625 L 22.472656 12.894531 C 21.835938 12.640625 21.375 12.046875 21.375 11.308594 C 21.375 10.574219 21.835938 9.980469 22.472656 9.722656 L 22.472656 5.476562 C 22.472656 4.144531 23.570312 3.066406 24.953125 3.066406 L 25.242188 3.066406 C 26.597656 3.066406 27.726562 4.144531 27.726562 5.476562 L 27.726562 6.324219 C 28.417969 6.550781 28.910156 7.175781 28.910156 7.9375 C 28.910156 8.703125 28.417969 9.328125 27.726562 9.554688 L 27.726562 15.53125 C 27.726562 16.210938 28.273438 16.71875 29.054688 16.71875 L 31.21875 16.71875 C 31.535156 16.71875 31.792969 16.976562 31.792969 17.285156 C 31.792969 17.597656 31.535156 17.851562 31.21875 17.851562 L 29.054688 17.851562 C 27.636719 17.851562 26.570312 16.863281 26.570312 15.53125 L 26.570312 9.496094 C 25.90625 9.269531 25.445312 8.648438 25.445312 7.910156 C 25.445312 7.175781 25.90625 6.550781 26.570312 6.324219 L 26.570312 5.476562 C 26.570312 4.765625 25.992188 4.199219 25.242188 4.199219 L 24.953125 4.199219 C 24.234375 4.199219 23.625 4.765625 23.625 5.476562 L 23.625 9.695312 C 24.347656 9.894531 24.867188 10.546875 24.867188 11.308594 C 24.867188 12.074219 24.347656 12.726562 23.65625 12.925781 L 23.65625 14.878906 C 23.65625 16.210938 22.558594 17.285156 21.171875 17.285156 L 20.941406 17.285156 C 20.277344 17.285156 19.644531 17.03125 19.179688 16.578125 C 18.71875 16.125 18.460938 15.503906 18.460938 14.878906 L 18.460938 13.492188 C 18.460938 13.265625 18.375 13.066406 18.230469 12.894531 C 18.054688 12.726562 17.855469 12.640625 17.621094 12.640625 L 15.488281 12.640625 C 14.390625 12.640625 13.496094 11.761719 13.496094 10.6875 L 13.496094 8.335938 C 12.859375 8.082031 12.425781 7.484375 12.425781 6.777344 C 12.425781 6.070312 12.859375 5.476562 13.496094 5.21875 L 13.496094 3.238281 C 13.496094 2.53125 12.917969 1.960938 12.167969 1.960938 L 11.9375 1.960938 C 11.214844 1.960938 10.609375 2.53125 10.609375 3.238281 L 10.609375 9.382812 C 11.332031 9.582031 11.878906 10.234375 11.878906 11.027344 C 11.878906 11.820312 11.332031 12.472656 10.609375 12.667969 L 10.609375 15.417969 C 10.609375 16.75 9.511719 17.824219 8.125 17.824219 C 6.769531 17.824219 5.644531 16.75 5.644531 15.417969 L 5.644531 13.574219 C 5.644531 12.867188 5.066406 12.300781 4.316406 12.300781 L 3.480469 12.300781 C 3.164062 12.300781 2.902344 12.046875 2.902344 11.734375 C 2.902344 11.421875 3.164062 11.167969 3.480469 11.167969 L 4.058594 11.167969 L 4.058594 8.730469 C 3.96875 8.730469 3.882812 8.761719 3.796875 8.761719 C 3.277344 8.761719 2.789062 8.535156 2.382812 8.363281 C 1.660156 8.050781 1.34375 7.96875 0.96875 8.277344 C 0.796875 8.421875 0.566406 8.449219 0.363281 8.363281 C 0.160156 8.277344 0.015625 8.082031 0.015625 7.855469 L 0.015625 5.191406 C 0.046875 4.964844 0.101562 4.824219 0.246094 4.710938 Z M 27.175781 7.34375 C 26.859375 7.34375 26.597656 7.597656 26.597656 7.910156 C 26.597656 8.222656 26.859375 8.476562 27.175781 8.476562 C 27.496094 8.476562 27.753906 8.222656 27.753906 7.910156 C 27.753906 7.597656 27.496094 7.34375 27.175781 7.34375 Z M 23.136719 10.742188 C 22.816406 10.742188 22.558594 11 22.558594 11.308594 C 22.558594 11.621094 22.816406 11.875 23.136719 11.875 C 23.453125 11.875 23.714844 11.621094 23.714844 11.308594 C 23.714844 11 23.453125 10.742188 23.136719 10.742188 Z M 14.160156 6.238281 C 13.84375 6.238281 13.582031 6.496094 13.582031 6.804688 C 13.582031 7.117188 13.84375 7.371094 14.160156 7.371094 C 14.476562 7.371094 14.738281 7.117188 14.738281 6.804688 C 14.738281 6.496094 14.476562 6.238281 14.160156 6.238281 Z M 10.148438 10.460938 C 9.828125 10.460938 9.570312 10.714844 9.570312 11.027344 C 9.570312 11.339844 9.828125 11.59375 10.148438 11.59375 C 10.464844 11.59375 10.726562 11.339844 10.726562 11.027344 C 10.726562 10.714844 10.464844 10.460938 10.148438 10.460938 Z M 1.199219 6.917969 C 1.804688 6.835938 2.410156 7.089844 2.875 7.289062 C 3.480469 7.542969 3.796875 7.65625 4.085938 7.515625 L 4.085938 6.042969 C 3.480469 6.125 2.875 5.871094 2.410156 5.671875 C 1.804688 5.417969 1.488281 5.304688 1.199219 5.445312 Z M 1.199219 6.917969 " fill-opacity="1" fill-rule="nonzero"/></g></g></g></g></svg>