<svg xmlns="http://www.w3.org/2000/svg" xmlns:xlink="http://www.w3.org/1999/xlink" width="500" zoomAndPan="magnify" viewBox="0 0 375 374.999991" height="500" preserveAspectRatio="xMidYMid meet" version="1.0"><defs><g/><clipPath id="fa49009f12"><path d="M 20.101562 108.535156 L 196.351562 108.535156 L 196.351562 191.035156 L 20.101562 191.035156 Z M 20.101562 108.535156 " clip-rule="nonzero"/></clipPath><clipPath id="eaf88bad0f"><path d="M 148 47 L 176.351562 47 L 176.351562 83.035156 L 148 83.035156 Z M 148 47 " clip-rule="nonzero"/></clipPath><clipPath id="f83b7a35e9"><path d="M 0.265625 0.535156 L 152 0.535156 L 152 83.035156 L 0.265625 83.035156 Z M 0.265625 0.535156 " clip-rule="nonzero"/></clipPath><clipPath id="3bb54f19f2"><rect x="0" width="177" y="0" height="84"/></clipPath><clipPath id="54e4367310"><rect x="0" width="146" y="0" height="131"/></clipPath><clipPath id="9d87a1a786"><rect x="0" width="356" y="0" height="131"/></clipPath></defs><g clip-path="url(#fa49009f12)"><g transform="matrix(1, 0, 0, 1, 20, 108)"><g clip-path="url(#3bb54f19f2)"><g clip-path="url(#eaf88bad0f)"><path fill="#ffffff" d="M 150.703125 67.949219 C 149.464844 65.75 148.914062 63.546875 148.914062 61.210938 C 148.914062 53.503906 155.105469 47.3125 162.671875 47.3125 C 170.238281 47.3125 176.429688 53.503906 176.429688 61.210938 C 176.429688 63.410156 175.878906 65.75 174.640625 67.949219 C 174.640625 67.949219 174.640625 68.089844 174.503906 68.089844 L 166.109375 81.160156 C 165.421875 82.398438 164.046875 83.085938 162.671875 83.085938 C 161.296875 83.085938 159.917969 82.398438 159.230469 81.160156 L 150.839844 68.089844 C 150.703125 68.089844 150.703125 67.949219 150.703125 67.949219 Z M 155.515625 65.199219 L 162.671875 76.34375 L 169.824219 65.199219 C 170.511719 63.824219 170.925781 62.585938 170.925781 61.210938 C 170.925781 56.53125 167.210938 52.816406 162.671875 52.816406 C 158.128906 52.816406 154.417969 56.53125 154.417969 61.210938 C 154.417969 62.585938 154.828125 63.824219 155.515625 65.199219 Z M 155.515625 65.199219 " fill-opacity="1" fill-rule="nonzero"/></g><path fill="#ffffff" d="M 159.917969 62.035156 C 159.917969 62.398438 159.988281 62.75 160.128906 63.085938 C 160.269531 63.425781 160.46875 63.722656 160.726562 63.980469 C 160.984375 64.238281 161.28125 64.4375 161.617188 64.578125 C 161.957031 64.714844 162.304688 64.785156 162.671875 64.785156 C 163.035156 64.785156 163.386719 64.714844 163.722656 64.578125 C 164.0625 64.4375 164.359375 64.238281 164.617188 63.980469 C 164.875 63.722656 165.074219 63.425781 165.214844 63.085938 C 165.351562 62.75 165.421875 62.398438 165.421875 62.035156 C 165.421875 61.667969 165.351562 61.320312 165.214844 60.980469 C 165.074219 60.644531 164.875 60.347656 164.617188 60.089844 C 164.359375 59.832031 164.0625 59.632812 163.722656 59.492188 C 163.386719 59.351562 163.035156 59.28125 162.671875 59.28125 C 162.304688 59.28125 161.957031 59.351562 161.617188 59.492188 C 161.28125 59.632812 160.984375 59.832031 160.726562 60.089844 C 160.46875 60.347656 160.269531 60.644531 160.128906 60.980469 C 159.988281 61.320312 159.917969 61.667969 159.917969 62.035156 Z M 159.917969 62.035156 " fill-opacity="1" fill-rule="nonzero"/><g clip-path="url(#f83b7a35e9)"><path fill="#ffffff" d="M 1.285156 19.382812 C 5.828125 15.394531 10.503906 17.457031 13.804688 18.972656 C 17.246094 20.484375 18.757812 20.898438 20.546875 19.382812 C 21.375 18.695312 22.472656 18.421875 23.4375 18.972656 C 24.398438 19.382812 25.085938 20.347656 25.085938 21.449219 L 25.085938 51.304688 C 29.492188 52.953125 32.65625 57.21875 32.65625 62.308594 L 32.65625 71.253906 C 32.65625 74.691406 35.40625 77.445312 38.984375 77.445312 C 42.421875 77.445312 45.3125 74.691406 45.3125 71.253906 L 45.3125 57.632812 C 42.421875 56.394531 40.359375 53.503906 40.359375 50.066406 C 40.359375 46.625 42.421875 43.734375 45.3125 42.496094 L 45.3125 12.230469 C 45.3125 5.761719 50.539062 0.535156 57.144531 0.535156 L 58.109375 0.535156 C 64.574219 0.535156 69.941406 5.761719 69.941406 12.230469 L 69.941406 21.585938 C 73.378906 22.546875 75.855469 25.710938 75.855469 29.566406 C 75.855469 33.417969 73.378906 36.445312 69.941406 37.542969 L 69.941406 48.6875 C 69.941406 50.890625 71.730469 52.679688 73.929688 52.679688 L 84.109375 52.679688 C 86.726562 52.679688 89.0625 53.640625 90.851562 55.429688 C 92.640625 57.21875 93.605469 59.558594 93.605469 62.171875 L 93.605469 68.914062 C 93.605469 70.566406 94.292969 72.214844 95.394531 73.316406 C 96.632812 74.554688 98.144531 75.105469 99.796875 75.105469 L 100.894531 75.105469 C 104.335938 75.105469 107.226562 72.351562 107.226562 68.914062 L 107.226562 59.144531 C 104.199219 57.90625 101.996094 55.019531 101.996094 51.441406 C 101.996094 47.863281 104.199219 44.972656 107.226562 43.734375 L 107.226562 23.097656 C 107.226562 16.632812 112.453125 11.402344 119.058594 11.402344 L 120.433594 11.402344 C 126.898438 11.402344 132.265625 16.632812 132.265625 23.097656 L 132.265625 27.226562 C 135.566406 28.328125 137.90625 31.355469 137.90625 35.070312 C 137.90625 38.78125 135.566406 41.808594 132.265625 42.910156 L 132.265625 71.941406 C 132.265625 75.242188 134.878906 77.71875 138.59375 77.71875 L 148.914062 77.71875 C 150.425781 77.71875 151.664062 78.957031 151.664062 80.472656 C 151.664062 81.984375 150.425781 83.222656 148.914062 83.222656 L 138.59375 83.222656 C 131.851562 83.222656 126.761719 78.40625 126.761719 71.941406 L 126.761719 42.636719 C 123.597656 41.535156 121.394531 38.507812 121.394531 34.929688 C 121.394531 31.355469 123.597656 28.328125 126.761719 27.226562 L 126.761719 23.097656 C 126.761719 19.660156 124.011719 16.90625 120.433594 16.90625 L 119.058594 16.90625 C 115.617188 16.90625 112.726562 19.660156 112.726562 23.097656 L 112.726562 43.597656 C 116.167969 44.5625 118.644531 47.726562 118.644531 51.441406 C 118.644531 55.15625 116.167969 58.320312 112.867188 59.28125 L 112.867188 68.777344 C 112.867188 75.242188 107.636719 80.472656 101.035156 80.472656 L 99.933594 80.472656 C 96.769531 80.472656 93.742188 79.234375 91.539062 77.03125 C 89.339844 74.828125 88.101562 71.804688 88.101562 68.777344 L 88.101562 62.035156 C 88.101562 60.933594 87.6875 59.972656 87 59.144531 C 86.175781 58.320312 85.210938 57.90625 84.109375 57.90625 L 73.929688 57.90625 C 68.703125 57.90625 64.4375 53.640625 64.4375 48.414062 L 64.4375 36.996094 C 61.410156 35.757812 59.347656 32.867188 59.347656 29.425781 C 59.347656 25.988281 61.410156 23.097656 64.4375 21.859375 L 64.4375 12.230469 C 64.4375 8.789062 61.683594 6.039062 58.109375 6.039062 L 57.007812 6.039062 C 53.566406 6.039062 50.679688 8.789062 50.679688 12.230469 L 50.679688 42.085938 C 54.117188 43.046875 56.730469 46.210938 56.730469 50.066406 C 56.730469 53.917969 54.117188 57.082031 50.679688 58.042969 L 50.679688 71.390625 C 50.679688 77.855469 45.449219 83.085938 38.847656 83.085938 C 32.378906 83.085938 27.015625 77.855469 27.015625 71.390625 L 27.015625 62.449219 C 27.015625 59.007812 24.261719 56.257812 20.683594 56.257812 L 16.695312 56.257812 C 15.183594 56.257812 13.945312 55.019531 13.945312 53.503906 C 13.945312 51.992188 15.183594 50.753906 16.695312 50.753906 L 19.445312 50.753906 L 19.445312 38.921875 C 19.035156 38.921875 18.621094 39.058594 18.207031 39.058594 C 15.730469 39.058594 13.394531 37.957031 11.46875 37.132812 C 8.027344 35.617188 6.515625 35.207031 4.726562 36.71875 C 3.898438 37.40625 2.800781 37.542969 1.835938 37.132812 C 0.875 36.71875 0.183594 35.757812 0.183594 34.65625 L 0.183594 21.722656 C 0.324219 20.621094 0.597656 19.933594 1.285156 19.382812 Z M 129.652344 32.179688 C 128.136719 32.179688 126.898438 33.417969 126.898438 34.929688 C 126.898438 36.445312 128.136719 37.683594 129.652344 37.683594 C 131.164062 37.683594 132.402344 36.445312 132.402344 34.929688 C 132.402344 33.417969 131.164062 32.179688 129.652344 32.179688 Z M 110.390625 48.6875 C 108.875 48.6875 107.636719 49.925781 107.636719 51.441406 C 107.636719 52.953125 108.875 54.191406 110.390625 54.191406 C 111.902344 54.191406 113.140625 52.953125 113.140625 51.441406 C 113.140625 49.925781 111.902344 48.6875 110.390625 48.6875 Z M 67.601562 26.8125 C 66.085938 26.8125 64.847656 28.050781 64.847656 29.566406 C 64.847656 31.078125 66.085938 32.316406 67.601562 32.316406 C 69.113281 32.316406 70.351562 31.078125 70.351562 29.566406 C 70.351562 28.050781 69.113281 26.8125 67.601562 26.8125 Z M 48.476562 47.3125 C 46.964844 47.3125 45.726562 48.550781 45.726562 50.066406 C 45.726562 51.578125 46.964844 52.816406 48.476562 52.816406 C 49.992188 52.816406 51.230469 51.578125 51.230469 50.066406 C 51.230469 48.550781 49.992188 47.3125 48.476562 47.3125 Z M 5.828125 30.117188 C 8.714844 29.703125 11.605469 30.941406 13.804688 31.902344 C 16.695312 33.140625 18.207031 33.691406 19.585938 33.003906 L 19.585938 25.851562 C 16.695312 26.261719 13.804688 25.023438 11.605469 24.0625 C 8.714844 22.824219 7.203125 22.273438 5.828125 22.960938 Z M 5.828125 30.117188 " fill-opacity="1" fill-rule="nonzero"/></g></g></g></g><g transform="matrix(1, 0, 0, 1, 220, 86)"><g clip-path="url(#54e4367310)"><g fill="#ffffff" fill-opacity="1"><g transform="translate(0.154946, 99.893849)"><g><path d="M 24.96875 -34.4375 L 24.96875 0 L 36.59375 0 L 36.59375 -79.109375 L 24.96875 -79.109375 L 24.96875 -46.390625 L 15.9375 -46.390625 L 15.9375 -79.109375 L 4.3125 -79.109375 L 4.3125 0 L 15.9375 0 L 15.9375 -34.4375 Z M 24.96875 -34.4375 "/></g></g></g><g fill="#ffffff" fill-opacity="1"><g transform="translate(41.054446, 99.893849)"><g><path d="M 20.78125 -44.890625 L 20.78125 -38.421875 C 20.5625 -37.847656 19.984375 -37.289062 19.046875 -36.75 C 18.117188 -36.21875 16.972656 -35.59375 15.609375 -34.875 C 14.242188 -34.15625 12.804688 -33.273438 11.296875 -32.234375 C 9.796875 -31.191406 8.398438 -29.847656 7.109375 -28.203125 C 5.816406 -26.617188 4.738281 -24.625 3.875 -22.21875 C 3.007812 -19.820312 2.578125 -16.972656 2.578125 -13.671875 C 2.578125 -10.585938 2.898438 -8.09375 3.546875 -6.1875 C 4.191406 -4.289062 4.984375 -2.835938 5.921875 -1.828125 C 6.785156 -0.753906 7.71875 -0.0390625 8.71875 0.3125 C 9.71875 0.675781 10.578125 0.859375 11.296875 0.859375 C 12.378906 0.859375 13.421875 0.660156 14.421875 0.265625 C 15.429688 -0.128906 16.289062 -0.613281 17 -1.1875 C 17.789062 -1.757812 18.421875 -2.367188 18.890625 -3.015625 C 19.359375 -3.660156 19.734375 -4.234375 20.015625 -4.734375 L 20.78125 -4.734375 C 20.78125 -4.378906 20.8125 -3.644531 20.875 -2.53125 C 20.945312 -1.414062 21.238281 -0.570312 21.75 0 L 32.40625 0 C 32.1875 -1.289062 32.003906 -2.65625 31.859375 -4.09375 C 31.710938 -5.53125 31.640625 -7.570312 31.640625 -10.21875 L 31.640625 -46.390625 C 31.640625 -48.328125 31.28125 -50.117188 30.5625 -51.765625 C 29.851562 -53.421875 28.882812 -54.820312 27.65625 -55.96875 C 25.007812 -58.476562 21.925781 -59.734375 18.40625 -59.734375 C 14.175781 -59.734375 10.695312 -58.191406 7.96875 -55.109375 C 6.675781 -53.671875 5.648438 -52 4.890625 -50.09375 C 4.140625 -48.195312 3.765625 -46.175781 3.765625 -44.03125 L 3.765625 -41.546875 L 14.640625 -41.546875 C 14.640625 -41.972656 14.640625 -42.421875 14.640625 -42.890625 C 14.640625 -43.359375 14.640625 -43.84375 14.640625 -44.34375 C 14.640625 -44.84375 14.65625 -45.328125 14.6875 -45.796875 C 14.726562 -46.265625 14.785156 -46.710938 14.859375 -47.140625 C 14.992188 -48.003906 15.273438 -48.738281 15.703125 -49.34375 C 16.140625 -49.957031 16.828125 -50.265625 17.765625 -50.265625 C 19.054688 -50.265625 19.953125 -49.65625 20.453125 -48.4375 C 20.597656 -47.9375 20.6875 -47.34375 20.71875 -46.65625 C 20.757812 -45.976562 20.78125 -45.390625 20.78125 -44.890625 Z M 20.78125 -28.421875 L 20.78125 -13.34375 C 20.78125 -12.34375 20.328125 -11.5 19.421875 -10.8125 C 18.523438 -10.132812 17.46875 -9.796875 16.25 -9.796875 C 15.601562 -9.796875 15.082031 -10.007812 14.6875 -10.4375 C 14.289062 -10.875 13.988281 -11.414062 13.78125 -12.0625 C 13.5625 -12.632812 13.414062 -13.222656 13.34375 -13.828125 C 13.269531 -14.441406 13.234375 -14.925781 13.234375 -15.28125 C 13.234375 -18.082031 13.828125 -20.679688 15.015625 -23.078125 C 16.203125 -25.484375 18.125 -27.265625 20.78125 -28.421875 Z M 20.78125 -28.421875 "/></g></g></g><g fill="#ffffff" fill-opacity="1"><g transform="translate(75.49614, 99.893849)"><g><path d="M 15.171875 0 L 15.171875 -46.390625 C 15.316406 -46.679688 15.476562 -46.929688 15.65625 -47.140625 C 15.84375 -47.359375 16.003906 -47.578125 16.140625 -47.796875 C 16.503906 -48.148438 16.882812 -48.46875 17.28125 -48.75 C 17.675781 -49.039062 18.160156 -49.1875 18.734375 -49.1875 C 19.378906 -49.1875 19.96875 -49.039062 20.5 -48.75 C 21.039062 -48.46875 21.3125 -47.753906 21.3125 -46.609375 L 21.3125 0 L 32.1875 0 L 32.1875 -48.21875 C 32.1875 -49.4375 32.023438 -50.726562 31.703125 -52.09375 C 31.378906 -53.457031 30.894531 -54.710938 30.25 -55.859375 C 29.601562 -56.941406 28.757812 -57.859375 27.71875 -58.609375 C 26.675781 -59.359375 25.4375 -59.734375 24 -59.734375 C 23.070312 -59.734375 22.140625 -59.484375 21.203125 -58.984375 C 20.273438 -58.484375 19.394531 -57.851562 18.5625 -57.09375 C 17.738281 -56.34375 17.039062 -55.679688 16.46875 -55.109375 C 15.75 -54.390625 15.316406 -53.992188 15.171875 -53.921875 L 15.171875 -58.875 L 4.3125 -58.875 L 4.3125 0 Z M 15.171875 0 "/></g></g></g><g fill="#ffffff" fill-opacity="1"><g transform="translate(111.229371, 99.893849)"><g><path d="M 20.78125 -43.8125 L 30.890625 -43.8125 C 30.890625 -45.457031 30.765625 -47.226562 30.515625 -49.125 C 30.265625 -51.03125 29.671875 -52.773438 28.734375 -54.359375 C 27.804688 -55.941406 26.410156 -57.25 24.546875 -58.28125 C 22.679688 -59.320312 20.164062 -59.804688 17 -59.734375 C 14.414062 -59.671875 12.265625 -59.132812 10.546875 -58.125 C 8.828125 -57.125 7.460938 -55.867188 6.453125 -54.359375 C 5.453125 -52.773438 4.753906 -51.050781 4.359375 -49.1875 C 3.960938 -47.320312 3.765625 -45.53125 3.765625 -43.8125 C 3.765625 -41.65625 4.085938 -39.734375 4.734375 -38.046875 C 5.378906 -36.359375 6.171875 -34.800781 7.109375 -33.375 C 8.109375 -31.9375 9.195312 -30.609375 10.375 -29.390625 C 11.5625 -28.171875 12.800781 -26.945312 14.09375 -25.71875 C 15.75 -24.070312 17.289062 -22.367188 18.71875 -20.609375 C 20.15625 -18.847656 20.875 -17.070312 20.875 -15.28125 C 20.875 -13.5625 20.640625 -11.945312 20.171875 -10.4375 C 19.710938 -8.9375 18.691406 -8.1875 17.109375 -8.1875 C 15.960938 -8.1875 15.066406 -8.507812 14.421875 -9.15625 C 13.773438 -9.800781 13.273438 -10.585938 12.921875 -11.515625 C 12.554688 -12.378906 12.320312 -13.332031 12.21875 -14.375 C 12.113281 -15.414062 12.0625 -16.328125 12.0625 -17.109375 L 1.9375 -17.109375 C 1.9375 -15.535156 2.097656 -13.722656 2.421875 -11.671875 C 2.742188 -9.628906 3.441406 -7.675781 4.515625 -5.8125 C 5.597656 -4.019531 7.140625 -2.457031 9.140625 -1.125 C 11.148438 0.195312 13.804688 0.859375 17.109375 0.859375 C 19.691406 0.859375 21.863281 0.359375 23.625 -0.640625 C 25.382812 -1.648438 26.835938 -2.941406 27.984375 -4.515625 C 29.054688 -6.023438 29.828125 -7.726562 30.296875 -9.625 C 30.765625 -11.53125 31 -13.414062 31 -15.28125 C 31 -17.21875 30.691406 -19.03125 30.078125 -20.71875 C 29.472656 -22.40625 28.703125 -24.003906 27.765625 -25.515625 C 26.835938 -26.941406 25.765625 -28.300781 24.546875 -29.59375 C 23.328125 -30.882812 22.140625 -32.109375 20.984375 -33.265625 C 20.128906 -34.046875 19.285156 -34.867188 18.453125 -35.734375 C 17.628906 -36.597656 16.894531 -37.457031 16.25 -38.3125 C 15.53125 -39.175781 14.957031 -40.070312 14.53125 -41 C 14.101562 -41.9375 13.890625 -42.875 13.890625 -43.8125 C 13.890625 -44.53125 13.921875 -45.300781 13.984375 -46.125 C 14.054688 -46.945312 14.238281 -47.679688 14.53125 -48.328125 C 14.75 -48.972656 15.070312 -49.53125 15.5 -50 C 15.925781 -50.46875 16.5 -50.703125 17.21875 -50.703125 C 18.082031 -50.703125 18.742188 -50.46875 19.203125 -50 C 19.671875 -49.53125 20.050781 -48.972656 20.34375 -48.328125 C 20.5625 -47.609375 20.6875 -46.851562 20.71875 -46.0625 C 20.757812 -45.28125 20.78125 -44.53125 20.78125 -43.8125 Z M 20.78125 -43.8125 "/></g></g></g></g></g><g transform="matrix(1, 0, 0, 1, 10, 158)"><g clip-path="url(#9d87a1a786)"><g fill="#ffffff" fill-opacity="1"><g transform="translate(0.601915, 99.727248)"><g><path d="M 4.3125 -79.109375 L 4.3125 0 L 30.890625 0 L 30.890625 -11.953125 L 15.9375 -11.953125 L 15.9375 -33.6875 L 26.6875 -33.6875 L 26.6875 -46.390625 L 15.9375 -46.390625 L 15.9375 -67.171875 L 30.890625 -67.171875 L 30.890625 -79.109375 Z M 4.3125 -79.109375 "/></g></g></g><g fill="#ffffff" fill-opacity="1"><g transform="translate(33.644409, 99.727248)"><g><path d="M 10.984375 -30.359375 L 0.859375 0 L 11.40625 0 L 15.828125 -14.859375 L 16.140625 -16.46875 L 16.359375 -16.46875 L 16.6875 -14.859375 L 21.09375 0 L 31.640625 0 L 21.53125 -30.359375 L 30.78125 -58.875 L 20.5625 -58.875 L 16.6875 -45.09375 L 16.359375 -43.484375 L 16.140625 -43.484375 L 15.828125 -45.09375 L 11.953125 -58.875 L 1.71875 -58.875 Z M 10.984375 -30.359375 "/></g></g></g><g fill="#ffffff" fill-opacity="1"><g transform="translate(66.148767, 99.727248)"><g><path d="M 4.3125 -58.875 L 4.3125 20.234375 L 15.171875 20.234375 L 15.171875 -3.875 C 15.679688 -3.445312 16.148438 -3.035156 16.578125 -2.640625 C 17.003906 -2.242188 17.46875 -1.863281 17.96875 -1.5 C 18.757812 -0.925781 19.675781 -0.390625 20.71875 0.109375 C 21.757812 0.609375 22.78125 0.859375 23.78125 0.859375 C 25.289062 0.859375 26.566406 0.484375 27.609375 -0.265625 C 28.648438 -1.023438 29.53125 -1.976562 30.25 -3.125 C 30.894531 -4.195312 31.378906 -5.414062 31.703125 -6.78125 C 32.023438 -8.144531 32.1875 -9.4375 32.1875 -10.65625 L 32.1875 -48.21875 C 32.1875 -49.4375 32.023438 -50.726562 31.703125 -52.09375 C 31.378906 -53.457031 30.894531 -54.710938 30.25 -55.859375 C 29.53125 -56.941406 28.648438 -57.859375 27.609375 -58.609375 C 26.566406 -59.359375 25.289062 -59.734375 23.78125 -59.734375 C 22.707031 -59.734375 21.707031 -59.484375 20.78125 -58.984375 C 19.695312 -58.484375 18.722656 -57.910156 17.859375 -57.265625 C 17.003906 -56.617188 16.109375 -55.863281 15.171875 -55 L 15.171875 -58.875 Z M 15.171875 -12.921875 L 15.171875 -45.96875 C 15.171875 -46.96875 15.507812 -47.804688 16.1875 -48.484375 C 16.875 -49.171875 17.613281 -49.515625 18.40625 -49.515625 C 19.195312 -49.515625 19.878906 -49.171875 20.453125 -48.484375 C 21.023438 -47.804688 21.3125 -46.96875 21.3125 -45.96875 L 21.3125 -12.921875 C 21.3125 -11.910156 21.023438 -11.0625 20.453125 -10.375 C 19.878906 -9.695312 19.195312 -9.359375 18.40625 -9.359375 C 17.613281 -9.359375 16.875 -9.734375 16.1875 -10.484375 C 15.507812 -11.242188 15.171875 -12.054688 15.171875 -12.921875 Z M 15.171875 -12.921875 "/></g></g></g><g fill="#ffffff" fill-opacity="1"><g transform="translate(102.204929, 99.727248)"><g><path d="M 31.53125 -21.09375 L 21.421875 -21.09375 L 21.421875 -14.640625 C 21.421875 -13.421875 21.273438 -12.414062 20.984375 -11.625 C 20.773438 -10.832031 20.398438 -10.148438 19.859375 -9.578125 C 19.316406 -9.003906 18.546875 -8.71875 17.546875 -8.71875 C 16.609375 -8.71875 15.851562 -9.003906 15.28125 -9.578125 C 14.207031 -10.867188 13.632812 -12.554688 13.5625 -14.640625 L 13.5625 -27.453125 L 31.53125 -27.453125 L 31.53125 -44.5625 C 31.46875 -46 31.289062 -47.328125 31 -48.546875 C 30.707031 -49.765625 30.3125 -50.945312 29.8125 -52.09375 C 28.957031 -53.957031 27.578125 -55.695312 25.671875 -57.3125 C 23.765625 -58.925781 21.054688 -59.734375 17.546875 -59.734375 C 13.953125 -59.734375 11.257812 -58.945312 9.46875 -57.375 C 5.738281 -54.289062 3.726562 -49.910156 3.4375 -44.234375 L 3.4375 -14.640625 C 3.507812 -13.203125 3.6875 -11.835938 3.96875 -10.546875 C 4.257812 -9.253906 4.660156 -8.035156 5.171875 -6.890625 C 6.023438 -4.953125 7.398438 -3.175781 9.296875 -1.5625 C 11.203125 0.0507812 13.914062 0.859375 17.4375 0.859375 C 21.019531 0.859375 23.75 0.0703125 25.625 -1.5 C 27.5625 -3.082031 28.992188 -4.894531 29.921875 -6.9375 C 30.859375 -8.988281 31.394531 -11.445312 31.53125 -14.3125 Z M 13.5625 -35.953125 L 13.5625 -44.234375 C 13.632812 -44.804688 13.707031 -45.34375 13.78125 -45.84375 C 13.851562 -46.351562 13.957031 -46.820312 14.09375 -47.25 C 14.382812 -48.039062 14.78125 -48.738281 15.28125 -49.34375 C 15.78125 -49.957031 16.535156 -50.265625 17.546875 -50.265625 C 18.546875 -50.265625 19.332031 -49.976562 19.90625 -49.40625 C 20.914062 -48.1875 21.421875 -46.460938 21.421875 -44.234375 L 21.421875 -35.953125 Z M 13.5625 -35.953125 "/></g></g></g><g fill="#ffffff" fill-opacity="1"><g transform="translate(136.646624, 99.727248)"><g><path d="M 26.046875 -47.6875 L 26.046875 -59.734375 C 24.035156 -59.734375 22.363281 -59.410156 21.03125 -58.765625 C 19.707031 -58.117188 18.617188 -57.40625 17.765625 -56.625 C 16.898438 -55.757812 16.269531 -54.914062 15.875 -54.09375 C 15.476562 -53.269531 15.242188 -52.675781 15.171875 -52.3125 L 15.171875 -58.875 L 4.3125 -58.875 L 4.3125 0 L 15.171875 0 L 15.171875 -40.90625 C 15.171875 -41.832031 15.3125 -42.742188 15.59375 -43.640625 C 15.882812 -44.546875 16.535156 -45.425781 17.546875 -46.28125 C 18.410156 -47.070312 19.328125 -47.570312 20.296875 -47.78125 C 21.265625 -48 22.175781 -48.109375 23.03125 -48.109375 C 23.53125 -48.109375 24.03125 -48.070312 24.53125 -48 C 25.039062 -47.9375 25.546875 -47.832031 26.046875 -47.6875 Z M 26.046875 -47.6875 "/></g></g></g><g fill="#ffffff" fill-opacity="1"><g transform="translate(163.123678, 99.727248)"><g><path d="M 4.3125 -79.109375 L 4.3125 -68.25 L 15.171875 -68.25 L 15.171875 -79.109375 Z M 4.3125 0 L 15.171875 0 L 15.171875 -58.875 L 4.3125 -58.875 Z M 4.3125 0 "/></g></g></g><g fill="#ffffff" fill-opacity="1"><g transform="translate(182.389494, 99.727248)"><g><path d="M 31.53125 -21.09375 L 21.421875 -21.09375 L 21.421875 -14.640625 C 21.421875 -13.421875 21.273438 -12.414062 20.984375 -11.625 C 20.773438 -10.832031 20.398438 -10.148438 19.859375 -9.578125 C 19.316406 -9.003906 18.546875 -8.71875 17.546875 -8.71875 C 16.609375 -8.71875 15.851562 -9.003906 15.28125 -9.578125 C 14.207031 -10.867188 13.632812 -12.554688 13.5625 -14.640625 L 13.5625 -27.453125 L 31.53125 -27.453125 L 31.53125 -44.5625 C 31.46875 -46 31.289062 -47.328125 31 -48.546875 C 30.707031 -49.765625 30.3125 -50.945312 29.8125 -52.09375 C 28.957031 -53.957031 27.578125 -55.695312 25.671875 -57.3125 C 23.765625 -58.925781 21.054688 -59.734375 17.546875 -59.734375 C 13.953125 -59.734375 11.257812 -58.945312 9.46875 -57.375 C 5.738281 -54.289062 3.726562 -49.910156 3.4375 -44.234375 L 3.4375 -14.640625 C 3.507812 -13.203125 3.6875 -11.835938 3.96875 -10.546875 C 4.257812 -9.253906 4.660156 -8.035156 5.171875 -6.890625 C 6.023438 -4.953125 7.398438 -3.175781 9.296875 -1.5625 C 11.203125 0.0507812 13.914062 0.859375 17.4375 0.859375 C 21.019531 0.859375 23.75 0.0703125 25.625 -1.5 C 27.5625 -3.082031 28.992188 -4.894531 29.921875 -6.9375 C 30.859375 -8.988281 31.394531 -11.445312 31.53125 -14.3125 Z M 13.5625 -35.953125 L 13.5625 -44.234375 C 13.632812 -44.804688 13.707031 -45.34375 13.78125 -45.84375 C 13.851562 -46.351562 13.957031 -46.820312 14.09375 -47.25 C 14.382812 -48.039062 14.78125 -48.738281 15.28125 -49.34375 C 15.78125 -49.957031 16.535156 -50.265625 17.546875 -50.265625 C 18.546875 -50.265625 19.332031 -49.976562 19.90625 -49.40625 C 20.914062 -48.1875 21.421875 -46.460938 21.421875 -44.234375 L 21.421875 -35.953125 Z M 13.5625 -35.953125 "/></g></g></g><g fill="#ffffff" fill-opacity="1"><g transform="translate(216.831188, 99.727248)"><g><path d="M 15.171875 0 L 15.171875 -46.390625 C 15.316406 -46.679688 15.476562 -46.929688 15.65625 -47.140625 C 15.84375 -47.359375 16.003906 -47.578125 16.140625 -47.796875 C 16.503906 -48.148438 16.882812 -48.46875 17.28125 -48.75 C 17.675781 -49.039062 18.160156 -49.1875 18.734375 -49.1875 C 19.378906 -49.1875 19.96875 -49.039062 20.5 -48.75 C 21.039062 -48.46875 21.3125 -47.753906 21.3125 -46.609375 L 21.3125 0 L 32.1875 0 L 32.1875 -48.21875 C 32.1875 -49.4375 32.023438 -50.726562 31.703125 -52.09375 C 31.378906 -53.457031 30.894531 -54.710938 30.25 -55.859375 C 29.601562 -56.941406 28.757812 -57.859375 27.71875 -58.609375 C 26.675781 -59.359375 25.4375 -59.734375 24 -59.734375 C 23.070312 -59.734375 22.140625 -59.484375 21.203125 -58.984375 C 20.273438 -58.484375 19.394531 -57.851562 18.5625 -57.09375 C 17.738281 -56.34375 17.039062 -55.679688 16.46875 -55.109375 C 15.75 -54.390625 15.316406 -53.992188 15.171875 -53.921875 L 15.171875 -58.875 L 4.3125 -58.875 L 4.3125 0 Z M 15.171875 0 "/></g></g></g><g fill="#ffffff" fill-opacity="1"><g transform="translate(253.102584, 99.727248)"><g><path d="M 14.3125 -13.5625 L 14.3125 -45.3125 C 14.3125 -46.394531 14.453125 -47.453125 14.734375 -48.484375 C 15.023438 -49.523438 15.890625 -50.046875 17.328125 -50.046875 C 18.546875 -50.046875 19.367188 -49.703125 19.796875 -49.015625 C 20.234375 -48.335938 20.453125 -47.101562 20.453125 -45.3125 L 20.453125 -38.21875 L 31.328125 -38.21875 L 31.328125 -42.84375 C 31.328125 -46.144531 31.035156 -48.867188 30.453125 -51.015625 C 29.878906 -53.171875 28.984375 -54.894531 27.765625 -56.1875 C 26.617188 -57.476562 25.164062 -58.390625 23.40625 -58.921875 C 21.65625 -59.460938 19.628906 -59.734375 17.328125 -59.734375 C 15.390625 -59.734375 13.554688 -59.445312 11.828125 -58.875 C 10.109375 -58.300781 8.640625 -57.332031 7.421875 -55.96875 C 6.203125 -54.601562 5.234375 -52.804688 4.515625 -50.578125 C 3.796875 -48.359375 3.4375 -45.597656 3.4375 -42.296875 L 3.4375 -16.578125 C 3.4375 -13.273438 3.796875 -10.507812 4.515625 -8.28125 C 5.234375 -6.0625 6.203125 -4.269531 7.421875 -2.90625 C 8.640625 -1.539062 10.109375 -0.570312 11.828125 0 C 13.554688 0.570312 15.390625 0.859375 17.328125 0.859375 C 19.628906 0.859375 21.65625 0.585938 23.40625 0.046875 C 25.164062 -0.484375 26.617188 -1.394531 27.765625 -2.6875 C 28.984375 -3.976562 29.878906 -5.703125 30.453125 -7.859375 C 31.035156 -10.015625 31.328125 -12.738281 31.328125 -16.03125 L 31.328125 -21.75 L 20.453125 -21.75 L 20.453125 -13.5625 C 20.453125 -11.769531 20.234375 -10.53125 19.796875 -9.84375 C 19.367188 -9.164062 18.546875 -8.828125 17.328125 -8.828125 C 15.890625 -8.828125 15.023438 -9.347656 14.734375 -10.390625 C 14.453125 -11.429688 14.3125 -12.488281 14.3125 -13.5625 Z M 14.3125 -13.5625 "/></g></g></g><g fill="#ffffff" fill-opacity="1"><g transform="translate(287.006114, 99.727248)"><g><path d="M 31.53125 -21.09375 L 21.421875 -21.09375 L 21.421875 -14.640625 C 21.421875 -13.421875 21.273438 -12.414062 20.984375 -11.625 C 20.773438 -10.832031 20.398438 -10.148438 19.859375 -9.578125 C 19.316406 -9.003906 18.546875 -8.71875 17.546875 -8.71875 C 16.609375 -8.71875 15.851562 -9.003906 15.28125 -9.578125 C 14.207031 -10.867188 13.632812 -12.554688 13.5625 -14.640625 L 13.5625 -27.453125 L 31.53125 -27.453125 L 31.53125 -44.5625 C 31.46875 -46 31.289062 -47.328125 31 -48.546875 C 30.707031 -49.765625 30.3125 -50.945312 29.8125 -52.09375 C 28.957031 -53.957031 27.578125 -55.695312 25.671875 -57.3125 C 23.765625 -58.925781 21.054688 -59.734375 17.546875 -59.734375 C 13.953125 -59.734375 11.257812 -58.945312 9.46875 -57.375 C 5.738281 -54.289062 3.726562 -49.910156 3.4375 -44.234375 L 3.4375 -14.640625 C 3.507812 -13.203125 3.6875 -11.835938 3.96875 -10.546875 C 4.257812 -9.253906 4.660156 -8.035156 5.171875 -6.890625 C 6.023438 -4.953125 7.398438 -3.175781 9.296875 -1.5625 C 11.203125 0.0507812 13.914062 0.859375 17.4375 0.859375 C 21.019531 0.859375 23.75 0.0703125 25.625 -1.5 C 27.5625 -3.082031 28.992188 -4.894531 29.921875 -6.9375 C 30.859375 -8.988281 31.394531 -11.445312 31.53125 -14.3125 Z M 13.5625 -35.953125 L 13.5625 -44.234375 C 13.632812 -44.804688 13.707031 -45.34375 13.78125 -45.84375 C 13.851562 -46.351562 13.957031 -46.820312 14.09375 -47.25 C 14.382812 -48.039062 14.78125 -48.738281 15.28125 -49.34375 C 15.78125 -49.957031 16.535156 -50.265625 17.546875 -50.265625 C 18.546875 -50.265625 19.332031 -49.976562 19.90625 -49.40625 C 20.914062 -48.1875 21.421875 -46.460938 21.421875 -44.234375 L 21.421875 -35.953125 Z M 13.5625 -35.953125 "/></g></g></g><g fill="#ffffff" fill-opacity="1"><g transform="translate(321.232542, 99.727248)"><g><path d="M 20.78125 -43.8125 L 30.890625 -43.8125 C 30.890625 -45.457031 30.765625 -47.226562 30.515625 -49.125 C 30.265625 -51.03125 29.671875 -52.773438 28.734375 -54.359375 C 27.804688 -55.941406 26.410156 -57.25 24.546875 -58.28125 C 22.679688 -59.320312 20.164062 -59.804688 17 -59.734375 C 14.414062 -59.671875 12.265625 -59.132812 10.546875 -58.125 C 8.828125 -57.125 7.460938 -55.867188 6.453125 -54.359375 C 5.453125 -52.773438 4.753906 -51.050781 4.359375 -49.1875 C 3.960938 -47.320312 3.765625 -45.53125 3.765625 -43.8125 C 3.765625 -41.65625 4.085938 -39.734375 4.734375 -38.046875 C 5.378906 -36.359375 6.171875 -34.800781 7.109375 -33.375 C 8.109375 -31.9375 9.195312 -30.609375 10.375 -29.390625 C 11.5625 -28.171875 12.800781 -26.945312 14.09375 -25.71875 C 15.75 -24.070312 17.289062 -22.367188 18.71875 -20.609375 C 20.15625 -18.847656 20.875 -17.070312 20.875 -15.28125 C 20.875 -13.5625 20.640625 -11.945312 20.171875 -10.4375 C 19.710938 -8.9375 18.691406 -8.1875 17.109375 -8.1875 C 15.960938 -8.1875 15.066406 -8.507812 14.421875 -9.15625 C 13.773438 -9.800781 13.273438 -10.585938 12.921875 -11.515625 C 12.554688 -12.378906 12.320312 -13.332031 12.21875 -14.375 C 12.113281 -15.414062 12.0625 -16.328125 12.0625 -17.109375 L 1.9375 -17.109375 C 1.9375 -15.535156 2.097656 -13.722656 2.421875 -11.671875 C 2.742188 -9.628906 3.441406 -7.675781 4.515625 -5.8125 C 5.597656 -4.019531 7.140625 -2.457031 9.140625 -1.125 C 11.148438 0.195312 13.804688 0.859375 17.109375 0.859375 C 19.691406 0.859375 21.863281 0.359375 23.625 -0.640625 C 25.382812 -1.648438 26.835938 -2.941406 27.984375 -4.515625 C 29.054688 -6.023438 29.828125 -7.726562 30.296875 -9.625 C 30.765625 -11.53125 31 -13.414062 31 -15.28125 C 31 -17.21875 30.691406 -19.03125 30.078125 -20.71875 C 29.472656 -22.40625 28.703125 -24.003906 27.765625 -25.515625 C 26.835938 -26.941406 25.765625 -28.300781 24.546875 -29.59375 C 23.328125 -30.882812 22.140625 -32.109375 20.984375 -33.265625 C 20.128906 -34.046875 19.285156 -34.867188 18.453125 -35.734375 C 17.628906 -36.597656 16.894531 -37.457031 16.25 -38.3125 C 15.53125 -39.175781 14.957031 -40.070312 14.53125 -41 C 14.101562 -41.9375 13.890625 -42.875 13.890625 -43.8125 C 13.890625 -44.53125 13.921875 -45.300781 13.984375 -46.125 C 14.054688 -46.945312 14.238281 -47.679688 14.53125 -48.328125 C 14.75 -48.972656 15.070312 -49.53125 15.5 -50 C 15.925781 -50.46875 16.5 -50.703125 17.21875 -50.703125 C 18.082031 -50.703125 18.742188 -50.46875 19.203125 -50 C 19.671875 -49.53125 20.050781 -48.972656 20.34375 -48.328125 C 20.5625 -47.609375 20.6875 -46.851562 20.71875 -46.0625 C 20.757812 -45.28125 20.78125 -44.53125 20.78125 -43.8125 Z M 20.78125 -43.8125 "/></g></g></g></g></g></svg>